<mxfile host="Electron" agent="Mozilla/5.0 (Macintosh; Intel Mac OS X 10_15_7) AppleWebKit/537.36 (KHTML, like Gecko) draw.io/27.0.9 Chrome/134.0.6998.205 Electron/35.4.0 Safari/537.36" version="27.0.9">
  <diagram name="Arquitetura" id="some-id">
    <mxGraphModel dx="1234" dy="790" grid="1" gridSize="10" guides="1" tooltips="1" connect="1" arrows="1" fold="1" page="1" pageScale="1" pageWidth="827" pageHeight="1169" math="0" shadow="0">
      <root>
        <mxCell id="0" />
        <mxCell id="1" parent="0" />
        <mxCell id="frontend" value="Frontend (HTML/NGINX)" style="shape=html;whiteSpace=wrap;html=1;" parent="1" vertex="1">
          <mxGeometry x="20" y="149" width="140" height="60" as="geometry" />
        </mxCell>
        <mxCell id="gateway" value="API Gateway (Auth + Routing)" style="shape=cylinder;whiteSpace=wrap;html=1;" parent="1" vertex="1">
          <mxGeometry x="200" y="150" width="180" height="60" as="geometry" />
        </mxCell>
        <mxCell id="arrow1" style="endArrow=block;html=1;" parent="1" source="frontend" target="gateway" edge="1">
          <mxGeometry relative="1" as="geometry" />
        </mxCell>
        <mxCell id="uploader" value="video-processor-uploader" style="shape=process;whiteSpace=wrap;html=1;" parent="1" vertex="1">
          <mxGeometry x="420" y="40" width="200" height="60" as="geometry" />
        </mxCell>
        <mxCell id="worker" value="video-processor-worker" style="shape=process;whiteSpace=wrap;html=1;" parent="1" vertex="1">
          <mxGeometry x="420" y="250" width="200" height="60" as="geometry" />
        </mxCell>
        <mxCell id="arrow2" style="endArrow=block;html=1;exitX=0.917;exitY=0.033;exitDx=0;exitDy=0;exitPerimeter=0;" parent="1" source="gateway" target="uploader" edge="1">
          <mxGeometry relative="1" as="geometry" />
        </mxCell>
        <mxCell id="arrow3" style="endArrow=block;html=1;" parent="1" source="uploader" target="nCSyTUaFR2rmr65Puiq9-15" edge="1">
          <mxGeometry relative="1" as="geometry">
            <mxPoint x="690" y="121.73913043478262" as="targetPoint" />
          </mxGeometry>
        </mxCell>
        <mxCell id="arrow4" style="endArrow=block;dashed=1;html=1;" parent="1" source="uploader" target="nCSyTUaFR2rmr65Puiq9-34" edge="1">
          <mxGeometry relative="1" as="geometry">
            <mxPoint x="520" y="120" as="targetPoint" />
          </mxGeometry>
        </mxCell>
        <mxCell id="arrow6" style="endArrow=block;html=1;entryX=0.019;entryY=0.8;entryDx=0;entryDy=0;entryPerimeter=0;" parent="1" source="worker" target="nCSyTUaFR2rmr65Puiq9-15" edge="1">
          <mxGeometry relative="1" as="geometry">
            <mxPoint x="690" y="163.47826086956525" as="targetPoint" />
          </mxGeometry>
        </mxCell>
        <mxCell id="2" value="Polling (consulta periódica por vídeos prontos - habiltada somente quando disparada requisição de processamento)" style="shape=note;whiteSpace=wrap;html=1;" parent="1" vertex="1">
          <mxGeometry x="20" y="261" width="180" height="60" as="geometry" />
        </mxCell>
        <mxCell id="3" style="endArrow=block;dashed=1;html=1;" parent="1" source="2" target="gateway" edge="1">
          <mxGeometry relative="1" as="geometry" />
        </mxCell>
        <mxCell id="nCSyTUaFR2rmr65Puiq9-4" style="endArrow=block;html=1;exitX=1;exitY=0.5;exitDx=0;exitDy=0;entryX=-0.02;entryY=0.429;entryDx=0;entryDy=0;entryPerimeter=0;" edge="1" parent="1" source="worker" target="nCSyTUaFR2rmr65Puiq9-14">
          <mxGeometry relative="1" as="geometry">
            <mxPoint x="650" y="396" as="sourcePoint" />
            <mxPoint x="680" y="230" as="targetPoint" />
          </mxGeometry>
        </mxCell>
        <mxCell id="nCSyTUaFR2rmr65Puiq9-5" style="endArrow=block;html=1;exitX=0.889;exitY=1;exitDx=0;exitDy=0;entryX=0;entryY=0.5;entryDx=0;entryDy=0;exitPerimeter=0;" edge="1" parent="1" source="gateway" target="worker">
          <mxGeometry relative="1" as="geometry">
            <mxPoint x="280" y="220" as="sourcePoint" />
            <mxPoint x="340" y="220" as="targetPoint" />
          </mxGeometry>
        </mxCell>
        <mxCell id="nCSyTUaFR2rmr65Puiq9-11" value="&lt;div&gt;&lt;span style=&quot;background-color: light-dark(#ffffff, var(--ge-dark-color, #121212)); color: light-dark(rgb(0, 0, 0), rgb(255, 255, 255));&quot;&gt;Database&lt;/span&gt;&lt;/div&gt;" style="image;sketch=0;aspect=fixed;html=1;points=[];align=center;fontSize=12;image=img/lib/mscae/Azure_Database_for_PostgreSQL_servers.svg;" vertex="1" parent="1">
          <mxGeometry x="741.6" y="231" width="68.4" height="90" as="geometry" />
        </mxCell>
        <mxCell id="nCSyTUaFR2rmr65Puiq9-14" value="Cache" style="image;sketch=0;aspect=fixed;html=1;points=[];align=center;fontSize=12;image=img/lib/mscae/Cache_Redis_Product.svg;" vertex="1" parent="1">
          <mxGeometry x="660" y="262" width="50" height="42" as="geometry" />
        </mxCell>
        <mxCell id="nCSyTUaFR2rmr65Puiq9-15" value="S3 Bucket" style="image;sketch=0;aspect=fixed;html=1;points=[];align=center;fontSize=12;image=img/lib/mscae/StorSimple_Data_Managers.svg;" vertex="1" parent="1">
          <mxGeometry x="710" y="80" width="51.8" height="70" as="geometry" />
        </mxCell>
        <mxCell id="nCSyTUaFR2rmr65Puiq9-16" style="endArrow=block;html=1;exitX=1;exitY=0.476;exitDx=0;exitDy=0;entryX=-0.023;entryY=0.556;entryDx=0;entryDy=0;entryPerimeter=0;exitPerimeter=0;" edge="1" parent="1" source="nCSyTUaFR2rmr65Puiq9-14" target="nCSyTUaFR2rmr65Puiq9-11">
          <mxGeometry relative="1" as="geometry">
            <mxPoint x="680" y="383" as="sourcePoint" />
            <mxPoint x="719" y="350" as="targetPoint" />
          </mxGeometry>
        </mxCell>
        <mxCell id="nCSyTUaFR2rmr65Puiq9-35" value="" style="edgeStyle=orthogonalEdgeStyle;rounded=0;orthogonalLoop=1;jettySize=auto;html=1;" edge="1" parent="1" source="nCSyTUaFR2rmr65Puiq9-34" target="worker">
          <mxGeometry relative="1" as="geometry" />
        </mxCell>
        <mxCell id="nCSyTUaFR2rmr65Puiq9-34" value="&lt;span style=&quot;color: rgb(255, 255, 255); text-wrap-mode: wrap;&quot;&gt;Kafka (processor.video.file)&lt;/span&gt;" style="sketch=0;outlineConnect=0;fontColor=#232F3E;gradientColor=none;fillColor=#E7157B;strokeColor=none;dashed=0;verticalLabelPosition=bottom;verticalAlign=top;align=center;html=1;fontSize=12;fontStyle=0;aspect=fixed;pointerEvents=1;shape=mxgraph.aws4.mq_broker;" vertex="1" parent="1">
          <mxGeometry x="481" y="140" width="78" height="69" as="geometry" />
        </mxCell>
      </root>
    </mxGraphModel>
  </diagram>
</mxfile>
